# xmcd
#
# Track frame offsets: 
#        150
#        14374
#        26860
#        43123
#        56901
#        72980
#        88112
#        103454
#        117521
#        134255
#        148696
#        166204
#        186186
#        208426
#        218079
#        246522
#
# Disc length: 3387 seconds
#
# Revision: 0
# Processed by: cddbd v1.5.2PL0 Copyright (c) Steve Scherf et al.
# Submitted via: ExactAudioCopy v0.95b4
#
DISCID=060d3910
DTITLE=Wayne Metheny  - Countryside Gospel Hymns and We Will Win
DYEAR=1900
DGENRE=Gospel
TTITLE0=The Old Gospel Ship
TTITLE1=My God Is Real
TTITLE2=Because He Lives
TTITLE3=He'll Understand and Say Well Done
TTITLE4=Life's Railway to Heaven
TTITLE5=Learning to Lean
TTITLE6=He Hideth My Soul
TTITLE7=Ten Thousand Years
TTITLE8=When Jesus Passes By
TTITLE9=What a Day That Will Be
TTITLE10=Almost Home
TTITLE11=Who Am I
TTITLE12=For What Earthly Reason
TTITLE13=We Will Win
TTITLE14=Enos's Testimony
TTITLE15=Amazing Grace: sung by Enos Cotman Jr.
EXTD=
EXTT0=
EXTT1=
EXTT2=
EXTT3=
EXTT4=
EXTT5=
EXTT6=
EXTT7=
EXTT8=
EXTT9=
EXTT10=
EXTT11=
EXTT12=
EXTT13=
EXTT14=
EXTT15=
PLAYORDER=
